HIERARCHY
ROOT Hips
{
	OFFSET 0.0000 0.0000 0.0000
	CHANNELS 6 Xposition Yposition Zposition Zrotation Xrotation Yrotation
	JOINT Ab
	{
		OFFSET -0.0000 8.0846 -0.0000
		CHANNELS 3 Zrotation Xrotation Yrotation
		JOINT Chest
		{
			OFFSET -0.0000 25.0068 -0.0000
			CHANNELS 3 Zrotation Xrotation Yrotation
			JOINT Neck
			{
				OFFSET -0.0000 25.0068 0.0000
				CHANNELS 3 Zrotation Xrotation Yrotation
				JOINT Head
				{
					OFFSET -0.0000 10.7556 0.0000
					CHANNELS 3 Zrotation Xrotation Yrotation
					End Site
					{
						OFFSET -0.0000 16.6222 0.0000
					}
				}
			}
			JOINT LeftCollar
			{
				OFFSET -0.0000 25.0068 0.0000
				CHANNELS 3 Zrotation Xrotation Yrotation
				JOINT LeftShoulder
				{
					OFFSET 19.5556 -0.0000 0.0000
					CHANNELS 3 Zrotation Xrotation Yrotation
					JOINT LeftElbow
					{
						OFFSET 27.1828 0.0000 0.0000
						CHANNELS 3 Zrotation Xrotation Yrotation
						JOINT LeftWrist
						{
							OFFSET 23.3157 0.0000 0.0000
							CHANNELS 3 Zrotation Xrotation Yrotation
							End Site
							{
								OFFSET 0.0000 -14.6667 0.0000
							}
						}
					}
				}
			}
			JOINT RightCollar
			{
				OFFSET -0.0000 25.0068 0.0000
				CHANNELS 3 Zrotation Xrotation Yrotation
				JOINT RightShoulder
				{
					OFFSET -19.5556 0.0000 0.0000
					CHANNELS 3 Zrotation Xrotation Yrotation
					JOINT RightElbow
					{
						OFFSET -27.1828 0.0000 0.0000
						CHANNELS 3 Zrotation Xrotation Yrotation
						JOINT RightWrist
						{
							OFFSET -23.3157 0.0000 0.0000
							CHANNELS 3 Zrotation Xrotation Yrotation
							End Site
							{
								OFFSET -0.0000 -14.6667 0.0000
							}
						}
					}
				}
			}
		}
	}
	JOINT LeftHip
	{
		OFFSET 11.7333 0.0000 0.0000
		CHANNELS 3 Zrotation Xrotation Yrotation
		JOINT LeftKnee
		{
			OFFSET -0.0000 -40.8688 0.0000
			CHANNELS 3 Zrotation Xrotation Yrotation
			JOINT LeftAnkle
			{
				OFFSET -0.0000 -44.4337 0.0000
				CHANNELS 3 Zrotation Xrotation Yrotation
				End Site
				{
					OFFSET -0.0000 -4.8889 16.6222
				}
			}
		}
	}
	JOINT RightHip
	{
		OFFSET -11.7333 0.0000 0.0000
		CHANNELS 3 Zrotation Xrotation Yrotation
		JOINT RightKnee
		{
			OFFSET -0.0000 -40.8688 0.0000
			CHANNELS 3 Zrotation Xrotation Yrotation
			JOINT RightAnkle
			{
				OFFSET -0.0000 -44.4337 0.0000
				CHANNELS 3 Zrotation Xrotation Yrotation
				End Site
				{
					OFFSET -0.0000 -4.8889 16.6222
				}
			}
		}
	}
}
MOTION
Frames: 12
Frame Time: 0.010000
-4.1951 88.5749 187.2845 2.4922 0.3249 173.9976 1.9724 359.5119 357.9585 359.0780 10.9266 358.0398 0.9198 346.5870 1.8559 2.7336 12.9010 1.4335 339.0353 358.5016 8.0200 300.4427 29.9303 355.9712 15.1708 354.7771 322.2468 82.9989 1.1914 340.5743 22.5561 359.1164 355.5582 58.9579 44.0361 7.4330 338.1859 354.2856 29.0040 277.1856 352.1851 17.4388 2.1833 358.3826 357.4250 359.2221 9.5983 357.4719 359.4348 353.2010 22.1479 0.9085 351.8199 0.0836 358.6371 20.1080 8.8326 356.5165 345.1614 337.1296 
-4.1995 88.5757 187.2775 2.4882 0.3202 174.0087 1.9677 359.5334 357.9643 359.0786 10.8968 358.0449 0.8847 346.5905 1.8362 2.7592 12.9173 1.4141 339.0270 358.5200 8.0518 300.4671 29.9451 355.9547 15.1179 354.7893 322.2990 83.0323 1.1241 340.5031 22.5618 359.1325 355.5751 58.9498 44.0344 7.4387 338.4971 354.3734 29.3549 276.7519 353.1697 18.7594 2.1753 358.3839 357.3782 359.2175 9.5901 357.4799 359.1208 353.1383 22.1068 0.9032 351.8216 0.0654 358.6309 20.1101 8.8331 356.5146 345.1568 337.1431 
-4.2041 88.5760 187.2686 2.4798 0.3063 174.0260 1.9562 359.5273 357.9644 359.0920 10.9007 358.0444 0.8320 346.5485 1.8049 2.7842 12.9714 1.3832 339.0314 358.5051 8.0131 300.4258 29.7632 356.0105 15.0567 354.8159 322.2087 83.0376 1.1463 340.3991 22.5560 359.1106 355.5947 58.9729 44.0566 7.4208 338.1835 354.2505 29.0623 277.1531 352.3223 17.6134 2.1656 358.3678 357.3582 359.2139 9.5989 357.4771 359.4140 353.1791 22.1550 0.8918 351.8215 0.0664 358.6321 20.1009 8.8336 356.4832 345.1510 337.1450 
-4.2076 88.5765 187.2579 2.4778 0.3032 174.0443 1.9506 359.5319 357.9616 359.0965 10.8999 358.0399 0.8069 346.5394 1.7948 2.7991 13.0069 1.3743 339.0277 358.5225 8.0306 300.4347 29.7891 356.0073 15.0779 354.8224 322.2316 82.9826 1.1245 340.4048 22.5575 359.1258 355.6217 58.9726 44.0230 7.4191 338.5095 354.3529 29.4156 276.7047 353.2663 18.9693 2.1655 358.3690 357.3144 359.1944 9.5972 357.4919 359.2094 353.1371 22.1440 0.8860 351.8324 0.0682 358.6340 20.0936 8.8207 356.4706 345.1348 337.1322 
-4.2106 88.5770 187.2514 2.4723 0.2823 174.0702 1.9455 359.5313 357.9555 359.0939 10.8818 358.0343 0.7545 346.5303 1.7679 2.8463 13.0442 1.3467 339.0304 358.5106 8.0403 300.4294 29.7717 356.0232 15.0968 354.8124 322.2082 82.9918 1.1196 340.3918 22.5621 359.1141 355.6345 58.9678 44.0368 7.4312 338.5168 354.3165 29.4330 276.6180 353.3508 19.0599 2.1630 358.3350 357.2829 359.1788 9.6172 357.5091 359.3171 353.1354 22.1565 0.8765 351.8291 0.0867 358.6491 20.0804 8.7994 356.4708 345.1078 337.0942 
-4.2144 88.5783 187.2400 2.4658 0.2807 174.0907 1.9347 359.5465 357.9590 359.0902 10.8673 358.0386 0.7053 346.5187 1.7444 2.8982 13.0917 1.3225 339.0278 358.5182 8.0347 300.4287 29.7062 356.0586 15.0487 354.8177 322.1885 82.9953 1.1087 340.3268 22.5684 359.1302 355.6619 58.9637 44.0301 7.4258 338.5772 354.3229 29.4858 276.2997 353.6477 19.1683 2.1593 358.3397 357.2617 359.1500 9.5995 357.5439 359.3908 353.1511 22.1733 0.8664 351.8473 0.1090 358.6604 20.0581 8.7651 356.4257 345.1152 337.0751 
-4.2198 88.5803 187.2323 2.4576 0.2673 174.1154 1.9204 359.5546 357.9672 359.0886 10.8570 358.0472 0.6906 346.5015 1.7173 2.8904 13.1341 1.2964 339.0337 358.5109 7.9938 300.3953 29.5303 356.1268 14.9797 354.8308 322.0950 82.9642 1.1336 340.2040 22.5670 359.1284 355.6633 58.9391 44.0513 7.4634 338.5364 354.2977 29.4644 276.5753 353.3976 19.1374 2.1593 358.3376 357.2438 359.1509 9.5959 357.4190 359.3090 353.1392 22.2238 0.8543 351.8506 0.1062 358.6608 20.0429 8.7610 356.3519 345.1093 337.0567 
-4.2241 88.5827 187.2234 2.4459 0.2533 174.1481 1.9001 359.5646 357.9736 359.0873 10.8382 358.0536 0.6615 346.4868 1.6844 2.9110 13.1834 1.2625 339.0314 358.5194 7.9727 300.3977 29.4234 356.1618 14.8883 354.8521 322.0448 83.0021 1.1443 340.1228 22.5765 359.1184 355.6425 58.8732 44.1089 7.5366 338.5974 354.3136 29.4822 276.1645 353.7142 19.1973 2.1456 358.2930 357.1822 359.1405 9.6551 357.4267 359.4203 353.1217 22.2534 0.8359 351.8517 0.1025 358.6674 20.0385 8.7409 356.5376 345.0432 337.0861 
-4.2328 88.5856 187.2162 2.4319 0.2368 174.1773 1.8911 359.5724 357.9787 359.0714 10.8343 358.0600 0.6236 346.4507 1.6600 2.9589 13.2372 1.2351 339.0353 358.5175 7.9590 300.3939 29.3271 356.1832 14.8119 354.8670 322.0061 83.1216 1.1057 340.0790 22.5879 359.1218 355.6327 58.7901 44.1456 7.6235 338.6096 354.3265 29.4361 276.4268 353.4593 19.1602 2.1406 358.2838 357.1642 359.0992 9.6237 357.4390 359.2963 353.1160 22.2561 0.8082 351.8504 0.1012 358.6835 20.0282 8.7208 356.5632 345.0119 337.0686 
-4.2445 88.5879 187.2100 2.4135 0.2108 174.2141 1.8877 359.5767 357.9761 359.0455 10.8169 358.0601 0.5604 346.4144 1.6309 3.0232 13.3132 1.2037 339.0415 358.5256 7.9397 300.3792 29.2078 356.2274 14.7360 354.8877 321.9485 83.1579 1.0819 339.9710 22.5996 359.1214 355.6271 58.7008 44.2082 7.7048 338.6381 354.3322 29.4259 276.4430 353.4700 19.1740 2.1260 358.2273 357.1161 359.0719 9.6709 357.4241 359.6487 353.1657 22.3410 0.7705 351.8447 0.1125 358.7089 20.0359 8.6162 356.6192 344.9421 337.0980 
-4.2607 88.5895 187.1986 2.3881 0.1909 174.2596 1.8977 359.5903 357.9644 358.9911 10.7766 358.0532 0.4967 346.4231 1.5980 3.0802 13.3563 1.1734 339.0450 358.5244 7.9347 300.3675 29.1427 356.2928 14.7211 354.8846 321.8764 83.1484 1.0818 339.9391 22.6248 359.1268 355.6473 58.6274 44.2604 7.7454 338.7078 354.3405 29.4579 276.1790 353.7163 19.2509 2.0937 358.1839 357.0732 359.0819 9.7228 357.3380 359.3285 353.0643 22.3121 0.7191 351.8481 0.0978 358.7269 20.0473 8.5160 356.6904 344.8792 337.1982 
-4.2762 88.5913 187.1863 2.3660 0.1720 174.3035 1.9048 359.6038 357.9591 358.9431 10.7449 358.0527 0.4095 346.4075 1.5579 3.1524 13.4189 1.1321 339.0426 358.5239 7.9483 300.3673 29.0790 356.3417 14.7331 354.8657 321.7576 83.0832 1.1547 340.0281 22.6410 359.1466 355.7046 58.6029 44.2617 7.7457 338.7322 354.3348 29.4669 276.2625 353.6699 19.3181 2.0685 358.1476 357.0421 359.0676 9.7532 357.3094 359.5881 353.0921 22.3687 0.6716 351.8545 0.0940 358.7560 20.0255 8.4433 356.8258 344.8141 337.2472 
